<svg id="ƒŒƒCƒ_1" data-name="ƒŒƒCƒ„[ 1" xmlns="http://www.w3.org/2000/svg" viewBox="0 0 89.01 63.74">
  <defs>
    <style>
      .cls-1 {
        fill: #1d1d1b;
      }

      .cls-2 {
        fill: #fff;
      }

      .cls-2, .cls-5 {
        stroke: #1d1d1b;
        stroke-linecap: round;
        stroke-linejoin: round;
        stroke-width: 2.4px;
      }

      .cls-3 {
        fill: #9d9d9c;
      }

      .cls-4 {
        fill: #7d4e24;
      }

      .cls-5 {
        fill: none;
      }
    </style>
  </defs>
  <title>Cartoon cat face 2</title>
  <g>
    <path class="cls-1" d="M77.18,46.8c0-1.3,0-2.6,0-3.91,0-5.6-.08-11.2-.18-16.8C77,23,76.58,1.2,73.94,1.2S63,15.59,60.14,16.57c-1.63.56-27.68.56-29.3,0C28,15.59,19.68,1.2,17,1.2S14,23,13.93,26.09c-.09,5.6-.14,11.2-.18,16.8,0,1.41,0,2.82.06,4.22l-1.12-.43S1.2,47.84,1.2,54.47,12.69,62,12.69,62c11.8.52,7.5.57,19.3.59,2.93,0,6.68-.61,7.29-3.46a3.67,3.67,0,0,0,.07-.92H49.66a3.65,3.65,0,0,0,.06.92c.62,2.85,4.37,3.47,7.3,3.46,11.8,0,7.5-.07,19.3-.59,0,0,11.49-.85,11.49-7.48C87.81,49,79.84,47.22,77.18,46.8Z"/>
    <path class="cls-2" d="M29.87,58.16h46.5a133.33,133.33,0,0,0,.85-15.27c0-5.6-.08-11.2-.18-16.8C77,23,76.58,1.2,73.94,1.2S63,15.59,60.14,16.57c-1.63.56-27.68.56-29.3,0C28,15.59,19.68,1.2,17,1.2S14,23,13.93,26.09c-.09,5.6-.14,11.2-.18,16.8a131.1,131.1,0,0,0,.86,15.27Z"/>
    <path class="cls-3" d="M66,10a66,66,0,0,0,10.57,4.72C76.2,8.1,75.43,1.2,73.94,1.2S69.14,5.79,66,10Z"/>
    <path class="cls-4" d="M16.49,43.11a21.8,21.8,0,0,0,11.93-.36,21,21,0,0,0,9-5.77,38.79,38.79,0,0,0,6-8.76A44.3,44.3,0,0,0,47.54,17c-7.54,0-15.81-.11-16.7-.42C28,15.59,19.68,1.2,17,1.2S14,23,13.93,26.09q-.13,8-.17,16.07A17.65,17.65,0,0,0,16.49,43.11Z"/>
    <path class="cls-5" d="M29.87,58.16h46.5a133.33,133.33,0,0,0,.85-15.27c0-5.6-.08-11.2-.18-16.8C77,23,76.58,1.2,73.94,1.2S63,15.59,60.14,16.57c-1.63.56-27.68.56-29.3,0C28,15.59,19.68,1.2,17,1.2S14,23,13.93,26.09c-.09,5.6-.14,11.2-.18,16.8a131.1,131.1,0,0,0,.86,15.27Z"/>
    <g>
      <g>
        <path class="cls-1" d="M32.69,37c0,2-1.64,1.57-3.68,1.57S25.33,39,25.33,37a3.68,3.68,0,1,1,7.36,0Z"/>
        <path class="cls-1" d="M65.64,37c0,2-1.65,1.57-3.68,1.57S58.28,39,58.28,37a3.68,3.68,0,1,1,7.36,0Z"/>
      </g>
      <path class="cls-1" d="M50.25,44.45a4,4,0,0,1-2.84-1.65c-.66-.75-1.31-1.54-1.92-2.34-.62.8-1.26,1.58-1.93,2.34-1.26,1.43-2.49,1.94-3.65,1.51a.86.86,0,0,1,.6-1.62c.58.22,1.42-.65,1.76-1a39.8,39.8,0,0,0,2.52-3.14.88.88,0,0,1,1.39,0c.79,1.08,1.64,2.14,2.52,3.14.34.38,1.2,1.25,1.76,1a.86.86,0,0,1,.6,1.62A2.3,2.3,0,0,1,50.25,44.45Z"/>
      <g>
        <path class="cls-1" d="M19.1,7.07c1.81,2.8,5.16,7.31,2.49,10.5-.49.59-1.29,1.46-2.13.88s-1.94-8.11-2.16-10a2.71,2.71,0,0,1,.08-1.36,1,1,0,0,1,1.09-.6A1.4,1.4,0,0,1,19.1,7.07Z"/>
        <path class="cls-1" d="M71.87,7.07c-1.81,2.8-5.15,7.31-2.49,10.5.5.59,1.29,1.46,2.14.88s1.94-8.11,2.16-10a2.71,2.71,0,0,0-.09-1.36,1,1,0,0,0-1.09-.6A1.46,1.46,0,0,0,71.87,7.07Z"/>
      </g>
    </g>
    <g>
      <path class="cls-2" d="M32.39,53.09c3.34.68,7.61,2.66,6.89,6-.61,2.85-4.36,3.47-7.29,3.46-11.8,0-7.5-.07-19.3-.59,0,0-11.49-.85-11.49-7.48s11.49-7.79,11.49-7.79C25.83,51.63,20.43,50.68,32.39,53.09Z"/>
      <path class="cls-2" d="M56.61,53.09c-3.34.68-7.6,2.66-6.89,6,.62,2.85,4.37,3.47,7.3,3.46,11.8,0,7.5-.07,19.3-.59,0,0,11.49-.85,11.49-7.48s-11.49-7.79-11.49-7.79C63.17,51.63,68.58,50.68,56.61,53.09Z"/>
    </g>
  </g>
</svg>
